<svg width="4022" height="2803" xmlns="http://www.w3.org/2000/svg" xmlns:xlink="http://www.w3.org/1999/xlink" xml:space="preserve" overflow="hidden"><g transform="translate(-281 -605)"><path d="M0 0 0.000360892 2093.23" stroke="#F1F7F6" stroke-width="6.875" stroke-miterlimit="8" stroke-dasharray="27.5 20.625" fill="none" fill-rule="evenodd" transform="matrix(1 0 0 -1 1576.5 3174.73)"/><path d="M0 0 571.092 0.000360892" stroke="#F1F7F6" stroke-width="6.875" stroke-miterlimit="8" stroke-dasharray="27.5 20.625" fill="none" fill-rule="evenodd" transform="matrix(-1 0 0 1 1599.59 1058.5)"/><path d="M480 786.5C480 686.26 561.26 605 661.5 605 761.74 605 843 686.26 843 786.5 843 886.74 761.74 968 661.5 968 561.26 968 480 886.74 480 786.5Z" fill="#00DF81" fill-rule="evenodd"/><g><g><g><path d="M753.646 835.333 567.354 835.333 567.354 714.792 753.646 714.792 753.646 835.333ZM759.125 698.354 561.875 698.354C555.848 698.354 550.917 703.285 550.917 709.312L550.917 840.812C550.917 846.84 555.848 851.771 561.875 851.771L638.583 851.771 638.583 868.208 611.188 868.208 611.188 884.646 709.813 884.646 709.813 868.208 682.417 868.208 682.417 851.771 759.125 851.771C765.152 851.771 770.083 846.84 770.083 840.812L770.083 709.312C770.083 703.285 765.152 698.354 759.125 698.354Z" fill="#032221"/></g></g></g><text fill="#00DF81" font-family="Calibri,Calibri_MSFontService,sans-serif" font-weight="700" font-size="83" transform="matrix(1 0 0 1 387.241 1073)">Internal Systems</text><text fill="#00DF81" font-family="Calibri,Calibri_MSFontService,sans-serif" font-weight="400" font-size="55" transform="matrix(1 0 0 1 538.812 1146)">CRMs, ERPs</text><text fill="#00DF81" font-family="Calibri,Calibri_MSFontService,sans-serif" font-weight="400" font-size="55" transform="matrix(1 0 0 1 497.975 1212)">SQL/NoSQL DBs</text><path d="M1552.5 1058.5C1552.5 1045.8 1563.02 1035.5 1576 1035.5 1588.98 1035.5 1599.5 1045.8 1599.5 1058.5 1599.5 1071.2 1588.98 1081.5 1576 1081.5 1563.02 1081.5 1552.5 1071.2 1552.5 1058.5Z" stroke="#F1F7F6" stroke-width="6.875" stroke-miterlimit="8" fill="#032221" fill-rule="evenodd"/><path d="M492 1871.5C492 1771.26 573.26 1690 673.5 1690 773.74 1690 855 1771.26 855 1871.5 855 1971.74 773.74 2053 673.5 2053 573.26 2053 492 1971.74 492 1871.5Z" fill="#00DF81" fill-rule="evenodd"/><g><g><g><path d="M722.813 1955.17 624.188 1955.17 624.188 1779.83 722.813 1779.83 722.813 1955.17ZM662.542 1757.92 684.458 1757.92C687.472 1757.92 689.938 1760.38 689.938 1763.4 689.938 1766.41 687.472 1768.87 684.458 1768.87L662.542 1768.87C659.528 1768.87 657.063 1766.41 657.063 1763.4 657.063 1760.38 659.528 1757.92 662.542 1757.92ZM733.771 1746.96 613.229 1746.96C610.216 1746.96 607.75 1749.42 607.75 1752.44L607.75 1982.56C607.75 1985.58 610.216 1988.04 613.229 1988.04L733.771 1988.04C736.784 1988.04 739.25 1985.58 739.25 1982.56L739.25 1752.44C739.25 1749.42 736.784 1746.96 733.771 1746.96Z" fill="#032221"/></g></g></g><text fill="#00DF81" font-family="Calibri,Calibri_MSFontService,sans-serif" font-weight="700" font-size="83" transform="matrix(1 0 0 1 458.74 2156)">Applications</text><text fill="#00DF81" font-family="Calibri,Calibri_MSFontService,sans-serif" font-weight="400" font-size="55" transform="matrix(1 0 0 1 545.342 2229)">IoT devices</text><text fill="#00DF81" font-family="Calibri,Calibri_MSFontService,sans-serif" font-weight="400" font-size="55" transform="matrix(1 0 0 1 567.548 2295)">Websites</text><path d="M0 0 1247.1 0.000360892" stroke="#F1F7F6" stroke-width="6.875" stroke-miterlimit="8" stroke-dasharray="27.5 20.625" fill="none" fill-rule="evenodd" transform="matrix(-1 0 0 1 2275.6 2137.5)"/><path d="M1552.5 2129.5C1552.5 2116.8 1563.02 2106.5 1576 2106.5 1588.98 2106.5 1599.5 2116.8 1599.5 2129.5 1599.5 2142.2 1588.98 2152.5 1576 2152.5 1563.02 2152.5 1552.5 2142.2 1552.5 2129.5Z" stroke="#F1F7F6" stroke-width="6.875" stroke-miterlimit="8" fill="#032221" fill-rule="evenodd"/><path d="M0 0 515.339 0.000360892" stroke="#F1F7F6" stroke-width="6.875" stroke-miterlimit="8" stroke-dasharray="27.5 20.625" fill="none" fill-rule="evenodd" transform="matrix(-1 0 0 1 1552.84 3197.5)"/><path d="M1552.5 3197.5C1552.5 3184.8 1563.02 3174.5 1576 3174.5 1588.98 3174.5 1599.5 3184.8 1599.5 3197.5 1599.5 3210.2 1588.98 3220.5 1576 3220.5 1563.02 3220.5 1552.5 3210.2 1552.5 3197.5Z" stroke="#F1F7F6" stroke-width="6.875" stroke-miterlimit="8" fill="#032221" fill-rule="evenodd"/><text fill="#00DF81" font-family="Calibri,Calibri_MSFontService,sans-serif" font-weight="700" font-size="83" transform="matrix(1 0 0 1 403.187 3221)">Files and Media</text><text fill="#00DF81" font-family="Calibri,Calibri_MSFontService,sans-serif" font-weight="400" font-size="55" transform="matrix(1 0 0 1 521.712 3293)">Spreadsheets</text><text fill="#00DF81" font-family="Calibri,Calibri_MSFontService,sans-serif" font-weight="400" font-size="55" transform="matrix(1 0 0 1 578.752 3359)">Flat files</text><path d="M482 2934.5C482 2834.26 563.26 2753 663.5 2753 763.74 2753 845 2834.26 845 2934.5 845 3034.74 763.74 3116 663.5 3116 563.26 3116 482 3034.74 482 2934.5Z" fill="#00DF81" fill-rule="evenodd"/><g><g><g><path d="M565 3020.06 763 3020.06C769.619 3020.04 774.979 3014.68 775 3008.06L775 2888.03C774.979 2881.41 769.619 2876.05 763 2876.03L661 2876.03 628 2854.13C626.111 2852.68 623.777 2851.94 621.4 2852.03L565 2852.03C558.381 2852.05 553.02 2857.41 553 2864.03L553 3008.06C553.018 3014.68 558.38 3020.04 565 3020.06ZM559 2864.02C559 2860.71 561.686 2858.02 565 2858.02L621.4 2858.02C622.372 2857.95 623.339 2858.2 624.157 2858.73L624.409 2858.94 624.682 2859.12 657.682 2881.02 659.182 2882.02 763 2882.02C766.314 2882.02 769 2884.71 769 2888.02L769 3008.06C769 3011.37 766.314 3014.06 763 3014.06L565 3014.06C561.686 3014.06 559 3011.37 559 3008.06Z" stroke="#032221" stroke-width="12"/></g></g></g><text fill="#00DF81" font-family="Calibri,Calibri_MSFontService,sans-serif" font-weight="700" font-size="83" transform="matrix(1 0 0 1 2430.5 2171)">ETL</text><text fill="#00DF81" font-family="Calibri,Calibri_MSFontService,sans-serif" font-weight="400" font-size="55" transform="matrix(1 0 0 1 2410.63 2244)">Extract</text><text fill="#00DF81" font-family="Calibri,Calibri_MSFontService,sans-serif" font-weight="400" font-size="55" transform="matrix(1 0 0 1 2375.73 2310)">Transform</text><text fill="#00DF81" font-family="Calibri,Calibri_MSFontService,sans-serif" font-weight="400" font-size="55" transform="matrix(1 0 0 1 2434.78 2376)">Load</text><path d="M2311 1882.5C2311 1782.26 2392.26 1701 2492.5 1701 2592.74 1701 2674 1782.26 2674 1882.5 2674 1982.74 2592.74 2064 2492.5 2064 2392.26 2064 2311 1982.74 2311 1882.5Z" fill="#00DF81" fill-rule="evenodd"/><path d="M2465 1759 2519 1790.5 2465 1822Z" stroke="#032221" stroke-width="10.3125" stroke-miterlimit="8" fill="none" fill-rule="evenodd"/><path d="M2368 1937C2368 1918.77 2382.77 1904 2401 1904 2419.23 1904 2434 1918.77 2434 1937 2434 1955.23 2419.23 1970 2401 1970 2382.77 1970 2368 1955.23 2368 1937Z" stroke="#032221" stroke-width="10.3125" stroke-miterlimit="8" fill="none" fill-rule="evenodd"/><rect x="2549" y="1859" width="65" height="111" stroke="#032221" stroke-width="10.3125" stroke-miterlimit="8" fill="none"/><path d="M2401 1904.84 2401 1791 2465.4 1791" stroke="#032221" stroke-width="10.3125" stroke-miterlimit="8" fill="none" fill-rule="evenodd"/><path d="M2519 1791 2581.51 1791 2581.51 1859.93" stroke="#032221" stroke-width="10.3125" stroke-miterlimit="8" fill="none" fill-rule="evenodd"/><path d="M0 0 57.4443 0 57.4443 0.000360892 114.889 0.000360892" stroke="#032221" stroke-width="10.3125" stroke-miterlimit="8" fill="none" fill-rule="evenodd" transform="matrix(1 0 0 -1 2434 1937)"/><text fill="#00DF81" font-family="Calibri,Calibri_MSFontService,sans-serif" font-weight="700" font-size="83" transform="matrix(1 0 0 1 3684.52 2176)">Data Warehouse</text><text fill="#00DF81" font-family="Calibri,Calibri_MSFontService,sans-serif" font-weight="400" font-size="64" transform="matrix(1 0 0 1 3824.86 2258)">Data marts</text><text fill="#00DF81" font-family="Calibri,Calibri_MSFontService,sans-serif" font-weight="400" font-size="64" transform="matrix(1 0 0 1 3841.18 2335)">Metadata</text><path d="M3787 1893.5C3787 1793.26 3868.26 1712 3968.5 1712 4068.74 1712 4150 1793.26 4150 1893.5 4150 1993.74 4068.74 2075 3968.5 2075 3868.26 2075 3787 1993.74 3787 1893.5Z" fill="#00DF81" fill-rule="evenodd"/><g><g><g><path d="M222.979 228.771 222.979 55.0209C222.979 38.0918 179.713 28.9583 139 28.9583 98.2875 28.9583 55.0209 38.0918 55.0209 55.0209L55.0209 228.771C55.0209 245.7 98.2875 254.833 139 254.833 179.713 254.833 222.979 245.7 222.979 228.771ZM139 34.75C183.749 34.75 217.188 45.4646 217.188 55.0209 217.188 64.5771 183.749 75.2917 139 75.2917 94.2507 75.2917 60.8125 64.5771 60.8125 55.0209 60.8125 45.4646 94.2507 34.75 139 34.75ZM60.8125 65.0404C73.9278 75.5234 107.241 81.0834 139 81.0834 170.759 81.0834 204.072 75.5234 217.188 65.0404L217.188 112.938C217.188 122.494 183.749 133.208 139 133.208 94.2507 133.208 60.8125 122.494 60.8125 112.938ZM60.8125 122.957C73.9278 133.44 107.241 139 139 139 170.759 139 204.072 133.44 217.188 122.957L217.188 170.854C217.188 180.41 183.749 191.125 139 191.125 94.2507 191.125 60.8125 180.41 60.8125 170.854ZM60.8125 228.771 60.8125 180.874C73.9278 191.357 107.241 196.917 139 196.917 170.759 196.917 204.072 191.357 217.188 180.874L217.188 228.771C217.188 238.327 183.749 249.042 139 249.042 94.2507 249.042 60.8125 238.327 60.8125 228.771Z" stroke="#032221" stroke-width="6.04349" fill="none" transform="matrix(1.0036 0 0 1 3829 1749)"/><path d="M202.708 104.25C202.708 107.449 200.115 110.042 196.917 110.042 193.718 110.042 191.125 107.449 191.125 104.25 191.125 101.051 193.718 98.4584 196.917 98.4584 200.115 98.4584 202.708 101.051 202.708 104.25Z" stroke="#032221" stroke-width="6.04349" fill="none" transform="matrix(1.0036 0 0 1 3829 1749)"/><path d="M202.708 162.167C202.708 165.365 200.115 167.958 196.917 167.958 193.718 167.958 191.125 165.365 191.125 162.167 191.125 158.968 193.718 156.375 196.917 156.375 200.115 156.375 202.708 158.968 202.708 162.167Z" stroke="#032221" stroke-width="6.04349" fill="none" transform="matrix(1.0036 0 0 1 3829 1749)"/><path d="M202.708 220.083C202.708 223.282 200.115 225.875 196.917 225.875 193.718 225.875 191.125 223.282 191.125 220.083 191.125 216.885 193.718 214.292 196.917 214.292 200.115 214.292 202.708 216.885 202.708 220.083Z" stroke="#032221" stroke-width="6.04349" fill="none" transform="matrix(1.0036 0 0 1 3829 1749)"/></g></g></g><path d="M0 0 832.857 0.000360892" stroke="#F1F7F6" stroke-width="6.875" stroke-miterlimit="8" stroke-dasharray="27.5 20.625" fill="none" fill-rule="evenodd" transform="matrix(-1 0 0 1 3571.36 2137.5)"/></g></svg>