<svg width="63" height="59" xmlns="http://www.w3.org/2000/svg" xmlns:xlink="http://www.w3.org/1999/xlink" overflow="hidden"><defs><clipPath id="clip0"><path d="M105 889 168 889 168 948 105 948Z" fill-rule="evenodd" clip-rule="evenodd"/></clipPath><clipPath id="clip1"><path d="M105 890 167 890 167 947 105 947Z" fill-rule="evenodd" clip-rule="evenodd"/></clipPath><clipPath id="clip2"><path d="M105 890 167 890 167 947 105 947Z" fill-rule="evenodd" clip-rule="evenodd"/></clipPath><linearGradient x1="5.27189" y1="10.439" x2="25.0751" y2="44.7374" gradientUnits="userSpaceOnUse" spreadMethod="pad" id="fill3"><stop offset="0" stop-color="#18884F"/><stop offset="0.5" stop-color="#117E43"/><stop offset="1" stop-color="#0B6631"/></linearGradient></defs><g clip-path="url(#clip0)" transform="translate(-105 -889)"><g clip-path="url(#clip1)"><g clip-path="url(#clip2)"><path d="M37.2441 26.2088 13.7941 22.0706 13.7941 52.6479C13.7941 54.0444 14.9261 55.1764 16.3226 55.1764L56.7861 55.1764C58.1826 55.1764 59.3147 54.0444 59.3147 52.6479L59.3147 41.3823Z" fill="#185C37" transform="matrix(1.01469 0 -0 1 105.615 891.128)"/><path d="M37.2441 0 16.3226 0C14.9261 0 13.7941 1.13202 13.7941 2.52845L13.7941 13.7941 37.2441 27.5882 49.6588 31.7264 59.3147 27.5882 59.3147 13.7941Z" fill="#21A366" transform="matrix(1.01469 0 -0 1 105.615 891.128)"/><path d="M13.7941 13.7941 37.2441 13.7941 37.2441 27.5882 13.7941 27.5882Z" fill="#107C41" transform="matrix(1.01469 0 -0 1 105.615 891.128)"/><path d="M30.5773 11.0353 13.7941 11.0353 13.7941 45.5205 30.5773 45.5205C31.972 45.5159 33.1012 44.3867 33.1059 42.992L33.1059 13.5637C33.1012 12.1692 31.972 11.0398 30.5773 11.0353Z" fill="#000000" fill-opacity="0.1" transform="matrix(1.01469 0 -0 1 105.615 891.128)"/><path d="M29.1979 12.4147 13.7941 12.4147 13.7941 46.9 29.1979 46.9C30.5926 46.8953 31.7218 45.7661 31.7264 44.3714L31.7264 14.9431C31.7218 13.5486 30.5926 12.4192 29.1979 12.4147Z" fill="#000000" fill-opacity="0.2" transform="matrix(1.01469 0 -0 1 105.615 891.128)"/><path d="M29.1979 12.4147 13.7941 12.4147 13.7941 44.1411 29.1979 44.1411C30.5926 44.1365 31.7218 43.0073 31.7264 41.6126L31.7264 14.9431C31.7218 13.5486 30.5926 12.4192 29.1979 12.4147Z" fill="#000000" fill-opacity="0.2" transform="matrix(1.01469 0 -0 1 105.615 891.128)"/><path d="M27.8185 12.4147 13.7941 12.4147 13.7941 44.1411 27.8185 44.1411C29.2132 44.1365 30.3424 43.0073 30.347 41.6126L30.347 14.9431C30.3424 13.5486 29.2132 12.4192 27.8185 12.4147Z" fill="#000000" fill-opacity="0.2" transform="matrix(1.01469 0 -0 1 105.615 891.128)"/><path d="M2.52845 12.4147 27.8185 12.4147C29.215 12.4147 30.347 13.5467 30.347 14.9431L30.347 40.2332C30.347 41.6297 29.215 42.7617 27.8185 42.7617L2.52845 42.7617C1.13202 42.7617 0 41.6297 0 40.2332L0 14.9431C0 13.5467 1.13202 12.4147 2.52845 12.4147Z" fill="url(#fill3)" transform="matrix(1.01469 0 -0 1 105.615 891.128)"/><path d="M7.83091 35.8066 13.1499 27.5646 8.27646 19.3683 12.1967 19.3683 14.8562 24.6101C15.1018 25.108 15.2701 25.4777 15.3611 25.7218L15.3956 25.7218C15.5675 25.3305 15.7515 24.9445 15.9474 24.5645L18.7903 19.3711 22.3892 19.3711 17.3916 27.5193 22.5161 35.8066 18.6869 35.8066 15.6149 30.0533C15.4702 29.8085 15.3474 29.5512 15.248 29.285L15.2025 29.285C15.1125 29.5458 14.9931 29.7958 14.8466 30.0297L11.6836 35.8066Z" fill="#FFFFFF" transform="matrix(1.01469 0 -0 1 105.615 891.128)"/><path d="M56.7861 0 37.2441 0 37.2441 13.7941 59.3147 13.7941 59.3147 2.52845C59.3147 1.13202 58.1826 0 56.7861 0Z" fill="#33C481" transform="matrix(1.01469 0 -0 1 105.615 891.128)"/><path d="M37.2441 27.5882 59.3147 27.5882 59.3147 41.3823 37.2441 41.3823Z" fill="#107C41" transform="matrix(1.01469 0 -0 1 105.615 891.128)"/></g></g></g></svg>