<svg width="4324" height="2546" xmlns="http://www.w3.org/2000/svg" xmlns:xlink="http://www.w3.org/1999/xlink" xml:space="preserve" overflow="hidden"><defs><clipPath id="clip0"><rect x="348" y="856" width="4324" height="2546"/></clipPath><clipPath id="clip1"><rect x="1240" y="2600" width="109" height="68"/></clipPath><clipPath id="clip2"><rect x="1240" y="2600" width="109" height="68"/></clipPath><clipPath id="clip3"><rect x="2895" y="2620" width="69" height="47"/></clipPath><clipPath id="clip4"><rect x="2895" y="2620" width="69" height="47"/></clipPath></defs><g clip-path="url(#clip0)" transform="translate(-348 -856)"><path d="M0 0 0.000360892 2156.09" stroke="#F1F7F6" stroke-width="6.875" stroke-miterlimit="8" stroke-dasharray="27.5 20.625" fill="none" fill-rule="evenodd" transform="matrix(1 0 0 -1 931.5 3147.59)"/><path d="M0 0 3739.95 0.000360892" stroke="#F1F7F6" stroke-width="6.875" stroke-miterlimit="8" stroke-dasharray="27.5 20.625" fill="none" fill-rule="evenodd" transform="matrix(-1 0 0 1 4534.45 968.5)"/><path d="M1183 965C1183 904.801 1231.8 856 1292 856 1352.2 856 1401 904.801 1401 965 1401 1025.2 1352.2 1074 1292 1074 1231.8 1074 1183 1025.2 1183 965Z" fill="#2CC295" fill-rule="evenodd"/><g><g><g><path d="M134.104 104.666 22.8958 104.666 22.8958 32.7083 134.104 32.7083 134.104 104.666ZM137.375 22.8958 19.625 22.8958C16.0271 22.8958 13.0833 25.8395 13.0833 29.4375L13.0833 107.937C13.0833 111.535 16.0271 114.479 19.625 114.479L65.4166 114.479 65.4166 124.291 49.0624 124.291 49.0624 134.104 107.937 134.104 107.937 124.291 91.5832 124.291 91.5832 114.479 137.375 114.479C140.973 114.479 143.916 111.535 143.916 107.937L143.916 29.4375C143.916 25.8395 140.973 22.8958 137.375 22.8958Z" fill="#032221" transform="matrix(1 0 0 1 1213 889)"/></g></g></g><text fill="#2CC295" font-family="Calibri,Calibri_MSFontService,sans-serif" font-weight="400" font-size="55" transform="matrix(1 0 0 1 1212.94 1140)">System</text><path d="M2006 965C2006 904.801 2054.58 856 2114.5 856 2174.42 856 2223 904.801 2223 965 2223 1025.2 2174.42 1074 2114.5 1074 2054.58 1074 2006 1025.2 2006 965Z" fill="#2CC295" fill-rule="evenodd"/><g><g><g><path d="M107.938 130.833 49.0625 130.833 49.0625 26.1667 107.938 26.1667 107.938 130.833ZM71.9584 13.0833 85.0417 13.0833C86.8407 13.0833 88.3126 14.5552 88.3126 16.3542 88.3126 18.1531 86.8407 19.625 85.0417 19.625L71.9584 19.625C70.1594 19.625 68.6875 18.1531 68.6875 16.3542 68.6875 14.5552 70.1594 13.0833 71.9584 13.0833ZM114.479 6.54167 42.5209 6.54167C40.7219 6.54167 39.25 8.01355 39.25 9.81251L39.25 147.188C39.25 148.987 40.7219 150.458 42.5209 150.458L114.479 150.458C116.278 150.458 117.75 148.987 117.75 147.188L117.75 9.81251C117.75 8.01355 116.278 6.54167 114.479 6.54167Z" fill="#032221" transform="matrix(1 0 0 1.00637 2036 884)"/></g></g></g><text fill="#2CC295" font-family="Calibri,Calibri_MSFontService,sans-serif" font-weight="400" font-size="55" transform="matrix(1 0 0 1 2034.98 1140)">Mobile</text><path d="M2807 965C2807 904.801 2855.58 856 2915.5 856 2975.42 856 3024 904.801 3024 965 3024 1025.2 2975.42 1074 2915.5 1074 2855.58 1074 2807 1025.2 2807 965Z" fill="#2CC295" fill-rule="evenodd"/><g><g><g><path d="M2953.06 1030.31 2924.15 960.938 2925.64 960.938C2928.49 960.938 2930.8 958.629 2930.8 955.781L2930.8 937.485 2924.1 937.485 2924.1 930.61 2930.98 930.61 2930.98 912.672C2930.98 910.38 2930.67 908.099 2930.07 905.888L2926.86 894.113C2926.25 891.869 2924.21 890.313 2921.88 890.312L2909.14 890.312C2906.81 890.308 2904.77 891.866 2904.16 894.113L2900.95 905.888C2900.34 908.099 2900.04 910.38 2900.04 912.672L2900.04 930.61 2906.91 930.61 2906.91 937.485 2900.04 937.485 2900.04 955.781C2900.04 958.629 2902.34 960.938 2905.19 960.938L2906.86 960.938 2877.96 1030.31C2877.2 1032.05 2878 1034.08 2879.74 1034.83 2881.48 1035.59 2883.51 1034.79 2884.27 1033.05 2884.28 1033.02 2884.29 1032.99 2884.31 1032.95L2899.34 996.875 2912.07 996.875 2912.07 1022.08C2912.07 1023.98 2913.61 1025.52 2915.51 1025.52 2917.41 1025.52 2918.95 1023.98 2918.95 1022.08L2918.95 996.875 2931.68 996.875 2946.71 1032.95C2947.42 1034.72 2949.42 1035.58 2951.18 1034.87 2952.94 1034.17 2953.8 1032.17 2953.1 1030.41 2953.09 1030.37 2953.07 1030.34 2953.06 1030.31ZM2915.51 900.625C2918.36 900.625 2920.66 902.933 2920.66 905.781 2920.66 908.629 2918.36 910.938 2915.51 910.938 2912.66 910.938 2910.35 908.629 2910.35 905.781 2910.35 902.933 2912.66 900.625 2915.51 900.625ZM2902.2 990 2912.07 966.321 2912.07 990ZM2918.95 990 2918.95 966.317 2928.81 990Z" fill="#032221"/></g></g></g><text fill="#2CC295" font-family="Calibri,Calibri_MSFontService,sans-serif" font-weight="400" font-size="55" transform="matrix(1 0 0 1 2840.56 1140)">Survey</text><path d="M3590 965C3590 904.801 3638.8 856 3699 856 3759.2 856 3808 904.801 3808 965 3808 1025.2 3759.2 1074 3699 1074 3638.8 1074 3590 1025.2 3590 965Z" fill="#2CC295" fill-rule="evenodd"/><g><g><g><path d="M3771.69 926.969 3749.34 926.969 3749.34 925.25C3749.34 923.352 3747.8 921.813 3745.91 921.813 3744.01 921.813 3742.47 923.352 3742.47 925.25L3742.47 926.969 3720.12 926.969C3718.23 926.969 3716.69 928.508 3716.69 930.406 3716.69 932.305 3718.23 933.844 3720.12 933.844L3742.47 933.844 3742.47 939 3740.75 939C3739.8 939 3739.03 939.77 3739.03 940.719L3739.03 944.488 3731.52 943.285C3710.31 939.87 3688.69 939.87 3667.48 943.285L3659.97 944.488 3659.97 940.719C3659.97 939.77 3659.2 939 3658.25 939L3656.53 939 3656.53 933.844 3678.88 933.844C3680.77 933.844 3682.31 932.305 3682.31 930.406 3682.31 928.508 3680.77 926.969 3678.88 926.969L3656.53 926.969 3656.53 925.25C3656.53 923.352 3654.99 921.813 3653.09 921.813 3651.2 921.813 3649.66 923.352 3649.66 925.25L3649.66 926.969 3627.31 926.969C3625.41 926.969 3623.88 928.508 3623.88 930.406 3623.88 932.305 3625.41 933.844 3627.31 933.844L3649.66 933.844 3649.66 939 3647.94 939C3646.99 939 3646.22 939.77 3646.22 940.719L3646.22 946.7 3642.46 947.307C3639.35 947.778 3637.21 950.679 3637.68 953.786 3638.07 956.31 3640.08 958.271 3642.62 958.582L3653.04 959.957C3658.1 960.627 3663.08 961.797 3667.91 963.448L3670.03 964.175C3672.01 964.852 3673.96 965.609 3675.88 966.445L3665.12 993.338 3665.12 1011.19 3672 1011.19 3672 994.662 3682.07 969.477 3682.76 969.84C3685 971.032 3687.5 971.656 3690.03 971.656L3694.34 971.656 3694.34 980.25 3689.19 980.25C3687.29 980.25 3685.75 981.789 3685.75 983.688L3685.75 997.438C3685.75 999.336 3687.29 1000.88 3689.19 1000.88L3709.81 1000.88C3711.71 1000.88 3713.25 999.336 3713.25 997.438L3713.25 983.688C3713.25 981.789 3711.71 980.25 3709.81 980.25L3704.66 980.25 3704.66 971.656 3708.97 971.656C3711.5 971.657 3714 971.033 3716.24 969.84L3716.93 969.475 3727 994.662 3727 1011.19 3733.88 1011.19 3733.88 993.338 3723.12 966.449C3725.04 965.615 3726.98 964.859 3728.96 964.18L3731.09 963.453C3735.92 961.804 3740.9 960.637 3745.96 959.969L3756.38 958.594C3759.5 958.211 3761.72 955.372 3761.34 952.253 3761.03 949.718 3759.06 947.701 3756.54 947.319L3752.78 946.7 3752.78 940.719C3752.78 939.77 3752.01 939 3751.06 939L3749.34 939 3749.34 933.844 3771.69 933.844C3773.59 933.844 3775.12 932.305 3775.12 930.406 3775.12 928.508 3773.59 926.969 3771.69 926.969ZM3699.5 994.859C3697.13 994.859 3695.2 992.936 3695.2 990.563 3695.2 988.19 3697.13 986.266 3699.5 986.266 3701.87 986.266 3703.8 988.19 3703.8 990.563 3703.8 992.936 3701.87 994.859 3699.5 994.859Z" fill="#032221"/></g></g></g><text fill="#2CC295" font-family="Calibri,Calibri_MSFontService,sans-serif" font-weight="400" font-size="55" transform="matrix(1 0 0 1 3645.68 1140)">Arial</text><path d="M4393 965C4393 904.801 4441.58 856 4501.5 856 4561.42 856 4610 904.801 4610 965 4610 1025.2 4561.42 1074 4501.5 1074 4441.58 1074 4393 1025.2 4393 965Z" fill="#2CC295" fill-rule="evenodd"/><g><g><g><path d="M4528.71 1006.96 4541.01 994.657 4545.07 998.711 4532.76 1011.02 4528.71 1006.96ZM4524.51 978.296 4528.56 982.35 4516.25 994.657 4512.2 990.603 4524.51 978.296ZM4540 962.948 4544.06 967.002 4532.76 978.296 4528.71 974.242 4540 962.948ZM4536.82 990.603 4524.51 1002.91 4520.45 998.856 4532.76 986.549 4536.82 990.603ZM4536.82 982.35 4548.11 971.056 4552.16 975.11 4540.87 986.404 4536.82 982.35ZM4549.12 994.657 4545.07 990.603 4556.36 979.309 4560.42 983.364 4549.12 994.657ZM4466.16 1001.9 4472.38 995.671 4478.61 1001.9 4466.16 1001.9ZM4468.33 991.617 4461.96 997.987 4461.96 985.246 4468.33 991.617ZM4473.4 951.654 4469.34 947.6 4481.65 935.293 4485.7 939.347 4473.4 951.654ZM4465.14 918.931 4469.2 922.985 4456.89 935.293 4452.84 931.239 4465.14 918.931ZM4484.69 907.638 4473.4 918.931 4469.34 914.877 4480.49 903.583 4484.69 907.638ZM4477.45 931.239 4465.14 943.546 4461.09 939.492 4473.4 927.184 4477.45 931.239ZM4477.45 922.985 4488.74 911.692 4492.8 915.746 4481.51 927.04 4477.45 922.985ZM4489.76 935.293 4485.7 931.239 4497 919.945 4501.05 923.999 4489.76 935.293ZM4564.47 979.309 4544.06 958.894C4542.9 957.735 4541.45 957.156 4540 957.156 4538.55 957.156 4536.96 957.735 4535.95 958.894L4524.51 970.188 4520.45 966.133 4534.79 951.799C4535.95 950.641 4536.53 949.193 4536.53 947.745 4536.53 946.152 4535.95 944.704 4534.79 943.691L4532.47 941.229 4537.83 938.333 4525.67 926.171 4522.77 931.528 4520.45 929.211C4519.3 928.053 4517.85 927.474 4516.4 927.474 4514.81 927.474 4513.36 928.053 4512.35 929.211L4498.01 943.546 4493.81 939.492 4505.11 928.198C4506.26 927.04 4506.84 925.592 4506.84 924.144 4506.84 922.551 4506.26 921.103 4505.11 920.09L4484.69 899.529C4483.53 898.371 4482.08 897.792 4480.49 897.792 4478.9 897.792 4477.45 898.371 4476.44 899.529L4448.78 927.184C4447.77 928.198 4447.19 929.646 4447.19 931.239 4447.19 932.831 4447.77 934.279 4448.93 935.293L4469.34 955.708C4470.5 956.867 4471.95 957.446 4473.4 957.446 4474.84 957.446 4476.44 956.867 4477.45 955.708L4489.76 943.401 4493.81 947.455 4479.48 961.79C4478.32 962.948 4477.74 964.396 4477.74 965.844 4477.74 967.436 4478.32 968.884 4479.48 969.898L4483.68 973.952 4479.33 978.296C4469.63 970.622 4457.9 968.884 4451.82 975.11L4456.17 979.309 4456.02 1001.03C4453.13 1001.46 4450.95 1004.07 4451.1 1007.11 4451.24 1010.15 4453.71 1012.47 4456.75 1012.47 4459.79 1012.61 4462.25 1010.29 4462.68 1007.4L4484.4 1007.54 4488.74 1011.89C4494.83 1005.81 4493.23 994.078 4485.56 984.377L4489.9 980.033 4493.81 984.377C4494.97 985.535 4496.42 986.115 4497.87 986.115 4499.46 986.115 4500.91 985.535 4501.92 984.377L4516.25 970.043 4520.31 974.097 4508 986.404C4506.84 987.562 4506.26 989.01 4506.26 990.458 4506.26 991.906 4506.84 993.499 4508 994.512L4528.56 1014.93C4529.72 1016.09 4531.17 1016.67 4532.62 1016.67 4534.21 1016.67 4535.66 1016.09 4536.67 1014.93L4564.47 987.562C4565.63 986.404 4566.21 984.956 4566.21 983.508 4566.21 981.916 4565.63 980.468 4564.47 979.309Z" fill="#032221"/></g></g></g><text fill="#2CC295" font-family="Calibri,Calibri_MSFontService,sans-serif" font-weight="400" font-size="55" transform="matrix(1 0 0 1 4411.65 1140)">Satellite</text><text fill="#2CC295" font-family="Calibri,Calibri_MSFontService,sans-serif" font-weight="400" font-size="83" transform="matrix(1 0 0 1 398.408 974)">Capture</text><path d="M908.5 968.5C908.5 955.798 918.798 945.5 931.5 945.5 944.203 945.5 954.5 955.798 954.5 968.5 954.5 981.203 944.203 991.5 931.5 991.5 918.798 991.5 908.5 981.203 908.5 968.5Z" stroke="#F1F7F6" stroke-width="6.875" stroke-miterlimit="8" fill="#032221" fill-rule="evenodd"/><path d="M0 0 2193.59 0.000360892" stroke="#F1F7F6" stroke-width="6.875" stroke-miterlimit="8" stroke-dasharray="27.5 20.625" fill="none" fill-rule="evenodd" transform="matrix(-1 0 0 1 2895.09 1507.5)"/><path d="M1181 1499.5C1181 1439.58 1229.58 1391 1289.5 1391 1349.42 1391 1398 1439.58 1398 1499.5 1398 1559.42 1349.42 1608 1289.5 1608 1229.58 1608 1181 1559.42 1181 1499.5Z" fill="#2CC295" fill-rule="evenodd"/><g><g><g><path d="M117.958 93.1249 31.0416 93.1249 31.0416 40.3541 117.958 40.3541 117.958 93.1249ZM127.271 37.25C127.271 33.8354 124.477 31.0416 121.062 31.0416L27.9375 31.0416C24.5229 31.0416 21.7291 33.8354 21.7291 37.25L21.7291 102.437 127.271 102.437 127.271 37.25Z" fill="#032221" transform="matrix(1 0 0 1 1215 1418)"/><path d="M83.8124 108.646 83.8124 110.198C83.8124 111.129 83.1916 111.75 82.2603 111.75L66.7395 111.75C65.8083 111.75 65.1874 111.129 65.1874 110.198L65.1874 108.646 3.10416 108.646 3.10416 111.75C3.10416 115.164 5.89791 117.958 9.31249 117.958L139.687 117.958C143.102 117.958 145.896 115.164 145.896 111.75L145.896 108.646 83.8124 108.646Z" fill="#032221" transform="matrix(1 0 0 1 1215 1418)"/></g></g></g><text fill="#2CC295" font-family="Calibri,Calibri_MSFontService,sans-serif" font-weight="400" font-size="55" transform="matrix(1 0 0 1 1196.74 1679)">Personal </text><text fill="#2CC295" font-family="Calibri,Calibri_MSFontService,sans-serif" font-weight="400" font-size="55" transform="matrix(1 0 0 1 1180.54 1745)">Computer</text><path d="M2001 1499.5C2001 1439.58 2049.58 1391 2109.5 1391 2169.42 1391 2218 1439.58 2218 1499.5 2218 1559.42 2169.42 1608 2109.5 1608 2049.58 1608 2001 1559.42 2001 1499.5Z" fill="#2CC295" fill-rule="evenodd"/><g><g><g><path d="M2104.09 1525.41 2112.91 1525.41 2112.91 1537.16 2104.09 1537.16Z" fill="#032221"/><path d="M2104.09 1543.03 2112.91 1543.03 2112.91 1551.84 2104.09 1551.84Z" fill="#032221"/><path d="M2118.78 1543.03 2161.38 1543.03 2161.38 1551.84 2118.78 1551.84Z" fill="#032221"/><path d="M2055.62 1543.03 2098.22 1543.03 2098.22 1551.84 2055.62 1551.84Z" fill="#032221"/><path d="M2150.24 1501.91 2066.76 1501.91C2063.85 1501.91 2061.5 1504.26 2061.5 1507.16L2061.5 1520.15C2061.5 1523.05 2063.85 1525.41 2066.76 1525.41L2150.24 1525.41C2153.15 1525.41 2155.5 1523.05 2155.5 1520.15L2155.5 1507.16C2155.5 1504.26 2153.15 1501.91 2150.24 1501.91ZM2076.19 1516.59C2074.57 1516.59 2073.25 1515.28 2073.25 1513.66 2073.25 1512.03 2074.57 1510.72 2076.19 1510.72 2077.81 1510.72 2079.12 1512.03 2079.12 1513.66 2079.12 1515.28 2077.81 1516.59 2076.19 1516.59ZM2090.88 1516.59C2089.25 1516.59 2087.94 1515.28 2087.94 1513.66 2087.94 1512.03 2089.25 1510.72 2090.88 1510.72 2092.5 1510.72 2093.81 1512.03 2093.81 1513.66 2093.81 1515.28 2092.5 1516.59 2090.88 1516.59ZM2105.56 1516.59C2103.94 1516.59 2102.62 1515.28 2102.62 1513.66 2102.62 1512.03 2103.94 1510.72 2105.56 1510.72 2107.19 1510.72 2108.5 1512.03 2108.5 1513.66 2108.5 1515.28 2107.19 1516.59 2105.56 1516.59Z" fill="#032221"/><path d="M2150.24 1472.53 2066.76 1472.53C2063.85 1472.53 2061.5 1474.89 2061.5 1477.79L2061.5 1490.77C2061.5 1493.68 2063.85 1496.03 2066.76 1496.03L2150.24 1496.03C2153.15 1496.03 2155.5 1493.68 2155.5 1490.77L2155.5 1477.79C2155.5 1474.89 2153.15 1472.53 2150.24 1472.53ZM2076.19 1487.22C2074.57 1487.22 2073.25 1485.9 2073.25 1484.28 2073.25 1482.66 2074.57 1481.34 2076.19 1481.34 2077.81 1481.34 2079.12 1482.66 2079.12 1484.28 2079.12 1485.9 2077.81 1487.22 2076.19 1487.22ZM2090.88 1487.22C2089.25 1487.22 2087.94 1485.9 2087.94 1484.28 2087.94 1482.66 2089.25 1481.34 2090.88 1481.34 2092.5 1481.34 2093.81 1482.66 2093.81 1484.28 2093.81 1485.9 2092.5 1487.22 2090.88 1487.22ZM2105.56 1487.22C2103.94 1487.22 2102.62 1485.9 2102.62 1484.28 2102.62 1482.66 2103.94 1481.34 2105.56 1481.34 2107.19 1481.34 2108.5 1482.66 2108.5 1484.28 2108.5 1485.9 2107.19 1487.22 2105.56 1487.22Z" fill="#032221"/><path d="M2150.24 1443.16 2066.76 1443.16C2063.85 1443.16 2061.5 1445.51 2061.5 1448.41L2061.5 1461.4C2061.5 1464.3 2063.85 1466.66 2066.76 1466.66L2150.24 1466.66C2153.15 1466.66 2155.5 1464.3 2155.5 1461.4L2155.5 1448.41C2155.5 1445.51 2153.15 1443.16 2150.24 1443.16ZM2076.19 1457.84C2074.57 1457.84 2073.25 1456.53 2073.25 1454.91 2073.25 1453.28 2074.57 1451.97 2076.19 1451.97 2077.81 1451.97 2079.12 1453.28 2079.12 1454.91 2079.12 1456.53 2077.81 1457.84 2076.19 1457.84ZM2090.88 1457.84C2089.25 1457.84 2087.94 1456.53 2087.94 1454.91 2087.94 1453.28 2089.25 1451.97 2090.88 1451.97 2092.5 1451.97 2093.81 1453.28 2093.81 1454.91 2093.81 1456.53 2092.5 1457.84 2090.88 1457.84ZM2105.56 1457.84C2103.94 1457.84 2102.62 1456.53 2102.62 1454.91 2102.62 1453.28 2103.94 1451.97 2105.56 1451.97 2107.19 1451.97 2108.5 1453.28 2108.5 1454.91 2108.5 1456.53 2107.19 1457.84 2105.56 1457.84Z" fill="#032221"/></g></g></g><text fill="#2CC295" font-family="Calibri,Calibri_MSFontService,sans-serif" font-weight="400" font-size="55" transform="matrix(1 0 0 1 1984.64 1679)">On Premise </text><text fill="#2CC295" font-family="Calibri,Calibri_MSFontService,sans-serif" font-weight="400" font-size="55" transform="matrix(1 0 0 1 2042.44 1745)">Server</text><path d="M2807 1499.5C2807 1439.58 2855.8 1391 2916 1391 2976.2 1391 3025 1439.58 3025 1499.5 3025 1559.42 2976.2 1608 2916 1608 2855.8 1608 2807 1559.42 2807 1499.5Z" fill="#2CC295" fill-rule="evenodd"/><g><g><g><path d="M2927.03 1478.15 2901.36 1478.15 2901.36 1516.65 2881.31 1516.65 2914.2 1555.15 2947.08 1516.65 2927.03 1516.65Z" fill="#032221"/><path d="M2967.3 1482.8C2966.01 1474.94 2961.68 1467.88 2955.26 1463.23 2948.69 1458.58 2940.35 1456.81 2932.32 1458.41 2924.46 1446.38 2909.87 1440.45 2895.91 1443.82 2882.27 1447.35 2872.01 1458.74 2869.92 1472.69 2860.94 1473.01 2852.44 1477.34 2846.98 1484.56 2840.57 1493.55 2839.44 1505.26 2843.94 1515.36 2848.59 1525.31 2858.21 1531.89 2869.12 1532.53L2880.83 1532.53 2876.5 1527.23 2872.49 1522.58 2869.6 1522.58C2862.38 1522.1 2855.97 1517.77 2852.76 1511.19 2849.71 1504.45 2850.51 1496.75 2854.84 1490.66 2859.18 1484.72 2866.39 1481.84 2873.77 1482.96L2879.39 1483.92 2879.39 1477.66C2879.39 1466.28 2887.09 1456.33 2898.16 1453.6 2909.23 1450.88 2920.61 1456.33 2925.75 1466.44L2927.67 1470.29 2931.68 1468.84C2937.78 1466.76 2944.36 1467.72 2949.65 1471.41 2954.78 1475.26 2957.83 1481.19 2957.99 1487.61L2957.99 1492.58 2964.57 1492.58C2972.75 1492.9 2979.17 1499.64 2979.01 1507.66 2979.01 1515.84 2972.43 1522.42 2964.41 1522.58L2956.07 1522.58 2951.9 1527.23 2947.4 1532.69 2964.41 1532.69C2977.4 1532.37 2987.99 1522.1 2988.79 1509.11 2989.59 1496.11 2980.13 1484.72 2967.3 1482.8Z" fill="#032221"/></g></g></g><text fill="#2CC295" font-family="Calibri,Calibri_MSFontService,sans-serif" font-weight="400" font-size="55" transform="matrix(1 0 0 1 2850.97 1679)">Cloud </text><text fill="#2CC295" font-family="Calibri,Calibri_MSFontService,sans-serif" font-weight="400" font-size="55" transform="matrix(1 0 0 1 2843.82 1745)">Server</text><text fill="#2CC295" font-family="Calibri,Calibri_MSFontService,sans-serif" font-weight="400" font-size="83" transform="matrix(1 0 0 1 398.408 1512)">Store</text><path d="M908.5 1507.5C908.5 1494.8 918.798 1484.5 931.5 1484.5 944.203 1484.5 954.5 1494.8 954.5 1507.5 954.5 1520.2 944.203 1530.5 931.5 1530.5 918.798 1530.5 908.5 1520.2 908.5 1507.5Z" stroke="#F1F7F6" stroke-width="6.875" stroke-miterlimit="8" fill="#032221" fill-rule="evenodd"/><path d="M0 0 2782.48 0.000360892" stroke="#F1F7F6" stroke-width="6.875" stroke-miterlimit="8" stroke-dasharray="27.5 20.625" fill="none" fill-rule="evenodd" transform="matrix(-1 0 0 1 3712.98 2106.5)"/><path d="M1184 2105.5C1184 2045.58 1232.58 1997 1292.5 1997 1352.42 1997 1401 2045.58 1401 2105.5 1401 2165.42 1352.42 2214 1292.5 2214 1232.58 2214 1184 2165.42 1184 2105.5Z" fill="#2CC295" fill-rule="evenodd"/><g><g><g><path d="M35.677 101.465C38.5312 104.32 38.5312 108.744 35.677 111.598L23.5468 115.594 21.4062 113.453 25.402 101.323C28.3989 98.6113 32.8229 98.6113 35.677 101.465ZM91.7613 26.9718 20.4073 98.4686 11.4166 125.583 38.6739 116.593 110.028 45.2385" fill="#032221" transform="matrix(1 0 0 1 1222 2033)"/><path d="M124.013 23.1187 113.881 12.9864C111.598 10.7031 108.03 10.7031 105.747 12.9864L95.7571 22.976 113.881 41.0999 123.871 31.1104C126.297 28.9697 126.297 25.402 124.013 23.1187Z" fill="#032221" transform="matrix(1 0 0 1 1222 2033)"/></g></g></g><text fill="#2CC295" font-family="Calibri,Calibri_MSFontService,sans-serif" font-weight="400" font-size="55" transform="matrix(1 0 0 1 1246.47 2281)">Edit</text><path d="M2006 2105.5C2006 2045.58 2054.58 1997 2114.5 1997 2174.42 1997 2223 2045.58 2223 2105.5 2223 2165.42 2174.42 2214 2114.5 2214 2054.58 2214 2006 2165.42 2006 2105.5Z" fill="#2CC295" fill-rule="evenodd"/><g><g><g><path d="M144.213 36.4854 129.515 21.7875 83 68.3021 36.4854 21.7875 21.7875 36.4854 68.3021 83 21.7875 129.515 36.4854 144.213 83 97.6979 129.515 144.213 144.213 129.515 97.6979 83Z" fill="#032221" transform="matrix(1.00602 0 0 1 2034 2021)"/></g></g></g><text fill="#2CC295" font-family="Calibri,Calibri_MSFontService,sans-serif" font-weight="400" font-size="55" transform="matrix(1 0 0 1 2040.58 2281)">Delete</text><path d="M2806 2105.5C2806 2045.58 2854.8 1997 2915 1997 2975.2 1997 3024 2045.58 3024 2105.5 3024 2165.42 2975.2 2214 2915 2214 2854.8 2214 2806 2165.42 2806 2105.5Z" fill="#2CC295" fill-rule="evenodd"/><g><g><g><path d="M2867.92 2121 2900.92 2088 2882.53 2088C2888.55 2076.31 2900.75 2068.23 2914.84 2068.23 2923.95 2068.23 2932.38 2071.67 2938.73 2077.34L2972.25 2077.34C2962.11 2055.69 2940.11 2040.91 2914.84 2040.91 2885.45 2040.91 2860.7 2060.84 2853.48 2088L2834.92 2088 2867.92 2121Z" fill="#032221"/><path d="M2994.59 2121 2961.59 2088 2928.59 2121 2947.16 2121C2941.14 2132.69 2928.94 2140.77 2914.84 2140.77 2905.73 2140.77 2897.31 2137.33 2890.95 2131.66L2857.27 2131.66C2867.58 2153.31 2889.41 2168.09 2914.84 2168.09 2944.23 2168.09 2968.98 2148.16 2976.2 2121L2994.59 2121Z" fill="#032221"/></g></g></g><text fill="#2CC295" font-family="Calibri,Calibri_MSFontService,sans-serif" font-weight="400" font-size="55" transform="matrix(1 0 0 1 2833.19 2281)">Update</text><path d="M3588 2105.5C3588 2045.58 3636.8 1997 3697 1997 3757.2 1997 3806 2045.58 3806 2105.5 3806 2165.42 3757.2 2214 3697 2214 3636.8 2214 3588 2165.42 3588 2105.5Z" fill="#2CC295" fill-rule="evenodd"/><g><g><g><path d="M154.917 73.9376 95.0626 73.9376 95.0626 14.0833 73.9376 14.0833 73.9376 73.9376 14.0833 73.9376 14.0833 95.0626 73.9376 95.0626 73.9376 154.917 95.0626 154.917 95.0626 95.0626 154.917 95.0626Z" fill="#032221" transform="matrix(1.00592 0 0 1 3612 2021)"/></g></g></g><text fill="#2CC295" font-family="Calibri,Calibri_MSFontService,sans-serif" font-weight="400" font-size="55" transform="matrix(1 0 0 1 3648.49 2281)">Add</text><text fill="#2CC295" font-family="Calibri,Calibri_MSFontService,sans-serif" font-weight="400" font-size="83" transform="matrix(1 0 0 1 398.408 2112)">Manipulate</text><path d="M908.5 2102C908.5 2089.02 918.798 2078.5 931.5 2078.5 944.203 2078.5 954.5 2089.02 954.5 2102 954.5 2114.98 944.203 2125.5 931.5 2125.5 918.798 2125.5 908.5 2114.98 908.5 2102Z" stroke="#F1F7F6" stroke-width="6.875" stroke-miterlimit="8" fill="#032221" fill-rule="evenodd"/><path d="M0 0 2083.54 0.000360892" stroke="#F1F7F6" stroke-width="6.875" stroke-miterlimit="8" stroke-dasharray="27.5 20.625" fill="none" fill-rule="evenodd" transform="matrix(-1 0 0 1 2923.04 2646.5)"/><path d="M1186 2641.5C1186 2581.58 1234.58 2533 1294.5 2533 1354.42 2533 1403 2581.58 1403 2641.5 1403 2701.42 1354.42 2750 1294.5 2750 1234.58 2750 1186 2701.42 1186 2641.5Z" fill="#2CC295" fill-rule="evenodd"/><g><g><g><path d="M1353.23 2671.67 1237.77 2671.67 1237.77 2596.96 1353.23 2596.96 1353.23 2671.67ZM1356.62 2586.77 1234.38 2586.77C1230.64 2586.77 1227.58 2589.83 1227.58 2593.56L1227.58 2675.06C1227.58 2678.8 1230.64 2681.85 1234.38 2681.85L1281.92 2681.85 1281.92 2692.04 1264.94 2692.04 1264.94 2702.23 1326.06 2702.23 1326.06 2692.04 1309.08 2692.04 1309.08 2681.85 1356.62 2681.85C1360.36 2681.85 1363.42 2678.8 1363.42 2675.06L1363.42 2593.56C1363.42 2589.83 1360.36 2586.77 1356.62 2586.77Z" fill="#032221"/></g></g></g><g clip-path="url(#clip1)"><g clip-path="url(#clip2)"><g><path d="M147.887 31.1544 31.1544 31.1544 31.1544 13.8464 17.308 13.8464C11.575 13.8521 6.92893 18.4983 6.9232 24.2312L6.9232 124.618C6.92893 130.351 11.575 134.997 17.308 135.002L135.002 135.002 135.002 152.31 148.849 152.31C154.581 152.304 159.227 147.658 159.234 141.926L159.234 41.5392C158.953 35.5451 153.882 30.904 147.887 31.1544ZM10.3848 24.2312C10.3848 20.4077 13.4844 17.308 17.308 17.308L27.6928 17.308 27.6928 114.233 17.308 114.233C14.7519 114.231 12.2854 115.175 10.3848 116.884ZM10.3848 124.618C10.3848 120.794 13.4844 117.694 17.308 117.694L31.1544 117.694 31.1544 34.616 147.887 34.616C151.969 34.3716 155.486 37.4599 155.772 41.5392L155.772 131.541 17.308 131.541C13.4844 131.541 10.3848 128.441 10.3848 124.618ZM155.772 141.926C155.772 145.749 152.672 148.849 148.849 148.849L138.464 148.849 138.464 135.002 155.772 135.002Z" fill="#032221" transform="matrix(1.12324 0 0 1 1189.79 2550.56)"/><path d="M45.1376 117.694 142.062 117.694 142.062 48.4624 45.1376 48.4624ZM66.6358 51.924 74.6667 51.924C72.7473 56.1749 70.6859 60.3894 67.098 61.6857L48.5992 68.3666 48.5992 60.4309C49.3437 60.5768 50.1008 60.6493 50.8596 60.6473 54.5401 60.5085 58.1073 59.3377 61.1544 57.2687 63.3598 55.9217 65.2334 54.0948 66.6358 51.924ZM48.5992 72.048 68.2732 64.9414C73.4552 63.0687 75.9614 57.4989 78.1716 52.5765 78.2703 52.3567 78.3689 52.1421 78.4676 51.924L86.9918 51.924C86.5435 52.9625 86.0952 54.0183 85.64 55.1122 82.9919 61.4902 79.9907 68.7197 74.6391 70.8123 65.7616 74.3941 57.0707 78.4217 48.5992 82.8794ZM48.5992 86.7927C57.469 82.0642 66.5817 77.8057 75.8991 74.035 82.6215 71.4059 85.9239 63.4546 88.8368 56.4397 89.4772 54.8975 90.102 53.3917 90.7407 51.9915L90.597 51.924 110.944 51.924C111.022 51.924 111.024 51.9396 110.944 51.9569 104.312 53.5146 98.5691 55.9758 96.532 59.8597 93.4009 65.8189 83.769 75.2327 76.6399 80.5359 73.1125 83.1581 70.9576 84.5306 68.8738 85.8581 66.9508 87.0818 65.1335 88.2397 62.5477 90.2111 55.4048 96.3383 50.7898 104.898 49.5961 114.233L48.5992 114.233ZM138.601 99.7997C135.799 106.55 129.081 111.94 120.528 114.222L120.528 114.233 102.912 114.233C97.2154 112.939 92.5513 108.868 90.4984 103.4 89.3936 99.6289 89.909 95.5681 91.9211 92.1928 95.104 86.4154 101.705 81.7111 109.575 79.6099 121.786 76.3456 134.227 79.9872 138.599 88.0718ZM108.684 76.2608C99.7876 78.6372 92.5719 83.8331 88.8887 90.5174 86.4125 94.7163 85.7984 99.7573 87.1943 104.428 88.5514 108.438 91.199 111.886 94.7233 114.233L77.0206 114.233C73.6414 110.991 72.1564 106.245 73.0848 101.655 74.1008 97.4233 75.0441 95.3221 80.3732 91.5421 83.2285 89.3652 85.9502 87.0186 88.5235 84.515 92.5293 80.5947 96.8437 77.0026 101.425 73.7737 113.421 65.8552 136.032 67.2832 138.596 67.4753L138.596 82.3861C132.098 75.8091 120.254 73.1731 108.684 76.2643ZM99.521 70.885C94.7766 74.2157 90.3097 77.9253 86.1645 81.9776 83.7033 84.379 81.1026 86.6328 78.3759 88.7278 72.4184 92.9544 70.9473 95.7635 69.7219 100.855 68.6524 105.512 69.682 110.403 72.5379 114.233L53.0992 114.233C54.285 105.993 58.3784 98.4486 64.6402 92.963 67.1101 91.0817 68.7941 90.0207 70.7274 88.778 72.7646 87.4799 75.0735 86.0087 78.6995 83.3121 85.1191 78.5386 95.8431 68.6003 99.5903 61.4694 103.447 54.1221 128.884 52.6908 138.601 52.7323L138.601 64.0016C134.715 63.716 112.256 62.4819 99.521 70.885ZM129.649 114.233C133.112 112.318 136.156 109.728 138.601 106.617L138.601 114.233ZM62.2621 51.924C61.3995 52.854 60.4143 53.6623 59.3336 54.3264 53.2758 58.0736 49.5909 57.2255 48.6026 56.8741L48.6026 51.924Z" fill="#032221" transform="matrix(1.12324 0 0 1 1189.79 2550.56)"/><path d="M111.062 85.0221C106.282 86.1307 102.149 89.1186 99.5989 93.3109 98.1174 95.8327 97.7541 98.8578 98.5968 101.659 100.243 106.934 106.143 110.233 112.931 110.233 114.827 110.23 116.714 109.98 118.544 109.489 123.324 108.381 127.456 105.393 130.006 101.2 131.489 98.6788 131.853 95.6532 131.01 92.8523 128.92 86.1541 119.969 82.644 111.062 85.0221ZM126.973 99.5297C124.862 102.879 121.512 105.258 117.653 106.145 110.512 108.049 103.445 105.577 101.903 100.627 101.352 98.7252 101.616 96.6801 102.633 94.9812 104.745 91.6314 108.097 89.2533 111.957 88.366 113.532 87.9427 115.155 87.7263 116.786 87.7222 122.044 87.7222 126.516 90.0674 127.707 93.8838 128.258 95.786 127.992 97.8316 126.973 99.5297Z" fill="#032221" transform="matrix(1.12324 0 0 1 1189.79 2550.56)"/><path d="M112.872 91.2271C110.362 91.7108 108.161 93.2085 106.79 95.3671 106.083 96.6036 105.941 98.0848 106.403 99.4328 107.315 102.019 110.366 103.618 113.911 103.618 114.863 103.617 115.813 103.504 116.739 103.284 119.252 102.803 121.454 101.306 122.826 99.1472 123.535 97.9111 123.676 96.4297 123.216 95.0816 122.058 91.8224 117.521 90.1315 112.872 91.2271ZM119.784 97.4856C118.882 98.7794 117.496 99.6535 115.939 99.9087 112.924 100.618 110.141 99.6318 109.66 98.2731 109.527 97.8519 109.586 97.3932 109.823 97.02 110.724 95.7263 112.111 94.8522 113.667 94.5969 114.327 94.4408 115.003 94.3612 115.682 94.3598 117.838 94.3598 119.576 95.1871 119.946 96.2325 120.081 96.6536 120.021 97.1128 119.784 97.4856Z" fill="#032221" transform="matrix(1.12324 0 0 1 1189.79 2550.56)"/></g></g></g><text fill="#2CC295" font-family="Calibri,Calibri_MSFontService,sans-serif" font-weight="400" font-size="55" transform="matrix(1 0 0 1 1230.8 2816)">Maps</text><path d="M1995 2641.5C1995 2581.58 2043.58 2533 2103.5 2533 2163.42 2533 2212 2581.58 2212 2641.5 2212 2701.42 2163.42 2750 2103.5 2750 2043.58 2750 1995 2701.42 1995 2641.5Z" fill="#2CC295" fill-rule="evenodd"/><g><g><g><path d="M2161.23 2668.67 2045.77 2668.67 2045.77 2593.96 2161.23 2593.96 2161.23 2668.67ZM2164.62 2583.77 2042.37 2583.77C2038.64 2583.77 2035.58 2586.83 2035.58 2590.56L2035.58 2672.06C2035.58 2675.8 2038.64 2678.85 2042.37 2678.85L2089.92 2678.85 2089.92 2689.04 2072.94 2689.04 2072.94 2699.23 2134.06 2699.23 2134.06 2689.04 2117.08 2689.04 2117.08 2678.85 2164.62 2678.85C2168.36 2678.85 2171.42 2675.8 2171.42 2672.06L2171.42 2590.56C2171.42 2586.83 2168.36 2583.77 2164.62 2583.77Z" fill="#032221"/></g></g></g><g><g><g><path d="M2102.08 2611.85 2102.08 2615.68C2102.75 2615.68 2103.33 2615.58 2104 2615.58 2104.67 2615.58 2105.25 2615.58 2105.92 2615.68L2105.92 2611.85C2109.65 2612.04 2113.2 2612.8 2116.46 2614.05L2115.02 2617.5C2116.27 2617.98 2117.42 2618.46 2118.57 2619.03L2120 2615.49C2121.83 2616.35 2123.45 2617.4 2125.08 2618.55L2129.2 2614.43C2122.21 2609.16 2113.49 2606 2104 2606 2080.71 2606 2061.83 2624.88 2061.83 2648.17L2061.83 2652 2067.58 2652 2067.58 2648.17C2067.58 2644.24 2068.25 2640.4 2069.4 2636.86L2072.95 2638.3C2073.33 2637.05 2073.81 2635.9 2074.29 2634.75L2070.75 2633.31C2072.18 2630.05 2074.2 2626.99 2076.5 2624.4L2079.18 2627.08C2080.04 2626.12 2080.9 2625.17 2081.86 2624.3L2079.18 2621.62C2081.77 2619.23 2084.74 2617.12 2088 2615.49L2089.43 2619.03C2090.58 2618.46 2091.73 2617.98 2092.98 2617.5L2091.54 2613.95C2094.8 2612.71 2098.35 2612.04 2102.08 2611.85Z" fill="#032221"/><path d="M2138.6 2624.02 2134.48 2628.14C2135.53 2629.77 2136.49 2631.49 2137.25 2633.22L2133.71 2634.75C2134.19 2635.9 2134.67 2637.15 2135.05 2638.3L2138.6 2636.86C2139.75 2640.4 2140.42 2644.24 2140.42 2648.17L2140.42 2652 2146.17 2652 2146.17 2648.17C2146.17 2639.16 2143.39 2630.92 2138.6 2624.02Z" fill="#032221"/><path d="M2101.32 2646.44C2101.12 2646.54 2101.03 2646.73 2100.84 2646.92 2099.5 2648.55 2099.69 2650.95 2101.32 2652.38 2102.95 2653.73 2105.34 2653.53 2106.78 2651.9L2136.58 2616.54 2101.32 2646.44Z" fill="#032221"/></g></g></g><text fill="#2CC295" font-family="Calibri,Calibri_MSFontService,sans-serif" font-weight="400" font-size="55" transform="matrix(1 0 0 1 1977.23 2816)">Dashboards</text><path d="M2801 2641.5C2801 2581.58 2849.58 2533 2909.5 2533 2969.42 2533 3018 2581.58 3018 2641.5 3018 2701.42 2969.42 2750 2909.5 2750 2849.58 2750 2801 2701.42 2801 2641.5Z" fill="#2CC295" fill-rule="evenodd"/><g><g><g><path d="M2968.65 2671.33 2850.35 2671.33 2850.35 2594.79 2968.65 2594.79 2968.65 2671.33ZM2972.12 2584.35 2846.88 2584.35C2843.05 2584.35 2839.92 2587.49 2839.92 2591.31L2839.92 2674.81C2839.92 2678.64 2843.05 2681.77 2846.88 2681.77L2895.58 2681.77 2895.58 2692.21 2878.19 2692.21 2878.19 2702.65 2940.81 2702.65 2940.81 2692.21 2923.42 2692.21 2923.42 2681.77 2972.12 2681.77C2975.95 2681.77 2979.08 2678.64 2979.08 2674.81L2979.08 2591.31C2979.08 2587.49 2975.95 2584.35 2972.12 2584.35Z" fill="#032221"/></g></g></g><g clip-path="url(#clip3)"><g clip-path="url(#clip4)"><g><path d="M100.041 21.0752 21.0752 21.0752 21.0752 9.36674 11.7084 9.36674C7.8302 9.37062 4.68725 12.5136 4.68337 16.3918L4.68337 84.3007C4.68725 88.1789 7.8302 91.3219 11.7084 91.3257L91.3257 91.3257 91.3257 103.034 100.692 103.034C104.57 103.03 107.713 99.887 107.718 96.0091L107.718 28.1002C107.528 24.0454 104.097 20.9057 100.041 21.0752ZM7.02506 16.3918C7.02506 13.8053 9.12187 11.7084 11.7084 11.7084L18.7335 11.7084 18.7335 77.2756 11.7084 77.2756C9.97926 77.2741 8.31079 77.9131 7.02506 79.0693ZM7.02506 84.3007C7.02506 81.7142 9.12187 79.6173 11.7084 79.6173L21.0752 79.6173 21.0752 23.4169 100.041 23.4169C102.803 23.2515 105.182 25.3407 105.376 28.1002L105.376 88.984 11.7084 88.984C9.12187 88.984 7.02506 86.8872 7.02506 84.3007ZM105.376 96.0091C105.376 98.5956 103.279 100.692 100.692 100.692L93.6674 100.692 93.6674 91.3257 105.376 91.3257Z" fill="#032221" transform="matrix(1.04546 0 0 1 2862.75 2586.56)"/><path d="M30.5344 79.6173 96.1016 79.6173 96.1016 32.7836 30.5344 32.7836ZM45.0774 35.1253 50.5102 35.1253C49.2117 38.0009 47.8172 40.8519 45.3901 41.7288L32.8761 46.2483 32.8761 40.88C33.3798 40.9787 33.8919 41.0277 34.4052 41.0263 36.895 40.9324 39.3081 40.1405 41.3694 38.7408 42.8613 37.8296 44.1287 36.5938 45.0774 35.1253ZM32.8761 48.7387 46.1851 43.9312C49.6906 42.6643 51.3859 38.8966 52.8811 35.5667 52.9478 35.418 53.0146 35.2728 53.0813 35.1253L58.8477 35.1253C58.5445 35.8278 58.2412 36.542 57.9333 37.282 56.1419 41.5965 54.1117 46.4871 50.4914 47.9027 44.486 50.3257 38.6069 53.0503 32.8761 56.0658ZM32.8761 58.7131C38.8763 55.5143 45.0408 52.6336 51.3438 50.0828 55.8913 48.3043 58.1253 42.9254 60.0958 38.18 60.529 37.1368 60.9517 36.1182 61.3838 35.1709L61.2866 35.1253 75.051 35.1253C75.1037 35.1253 75.1049 35.1358 75.051 35.1475 70.5643 36.2013 66.6795 37.8662 65.3014 40.4936 63.1834 44.5248 56.6676 50.893 51.8449 54.4805 49.4587 56.2543 48.001 57.1828 46.5913 58.0808 45.2905 58.9086 44.0611 59.6919 42.3119 61.0255 37.48 65.1704 34.358 70.9609 33.5505 77.2756L32.8761 77.2756ZM93.7599 67.512C91.8643 72.0782 87.3203 75.7243 81.534 77.2686L81.534 77.2756 69.6171 77.2756C65.7638 76.4003 62.6086 73.6467 61.2198 69.9473 60.4725 67.3964 60.8212 64.6494 62.1823 62.3661 64.3355 58.4578 68.8011 55.2755 74.1249 53.8541 82.3852 51.6459 90.8012 54.1093 93.7587 59.5783ZM73.5219 51.5885C67.5038 53.1961 62.6225 56.7109 60.131 61.2327 58.4558 64.0732 58.0404 67.4833 58.9847 70.6428 59.9028 73.3559 61.6938 75.6883 64.0779 77.2756L52.1025 77.2756C49.8165 75.0825 48.812 71.8721 49.44 68.7671 50.1273 65.9044 50.7654 64.483 54.3704 61.9259 56.302 60.4533 58.1431 58.8659 59.8839 57.1722 62.5937 54.5203 65.5123 52.0903 68.6114 49.906 76.7265 44.5494 92.0224 45.5153 93.7564 45.6453L93.7564 55.7321C89.3611 51.2829 81.349 49.4997 73.5219 51.5908ZM67.3235 47.9519C64.1139 50.205 61.0922 52.7145 58.2881 55.4558 56.6231 57.0802 54.8638 58.6049 53.0193 60.0221 48.9892 62.8813 47.994 64.7815 47.1651 68.2262 46.4416 71.3761 47.1381 74.6848 49.07 77.2756L35.9203 77.2756C36.7224 71.7015 39.4915 66.598 43.7275 62.8871 45.3983 61.6144 46.5375 60.8967 47.8453 60.056 49.2234 59.1779 50.7853 58.1827 53.2382 56.3585 57.5809 53.1293 64.8354 46.4063 67.3703 41.5825 69.9789 36.6123 87.1868 35.644 93.7599 35.6721L93.7599 43.2954C91.1314 43.1022 75.9385 42.2674 67.3235 47.9519ZM87.7043 77.2756C90.0467 75.9802 92.1059 74.2285 93.7599 72.1239L93.7599 77.2756ZM42.1187 35.1253C41.5352 35.7544 40.8687 36.3012 40.1377 36.7504 36.0397 39.2853 33.547 38.7116 32.8784 38.4739L32.8784 35.1253Z" fill="#032221" transform="matrix(1.04546 0 0 1 2862.75 2586.56)"/><path d="M75.1306 57.5153C71.8968 58.2652 69.1015 60.2865 67.3761 63.1225 66.3739 64.8284 66.1281 66.8748 66.6982 68.7694 67.8117 72.3382 71.8031 74.5698 76.3951 74.5698 77.6773 74.568 78.9538 74.3989 80.1922 74.0663 83.4258 73.3168 86.2208 71.2954 87.9455 68.4592 88.9487 66.7537 89.1949 64.707 88.6246 62.8122 87.2114 58.281 81.1558 55.9066 75.1306 57.5153ZM85.8942 67.3293C84.4662 69.5954 82.1995 71.2041 79.5892 71.8043 74.7583 73.0922 69.9778 71.4202 68.9345 68.0716 68.5619 66.7851 68.7409 65.4016 69.4286 64.2523 70.8576 61.9863 73.1251 60.3775 75.736 59.7774 76.8013 59.491 77.8994 59.3446 79.0026 59.3418 82.5596 59.3418 85.5851 60.9283 86.3906 63.51 86.7632 64.7968 86.5833 66.1806 85.8942 67.3293Z" fill="#032221" transform="matrix(1.04546 0 0 1 2862.75 2586.56)"/><path d="M76.3553 61.7128C74.6568 62.04 73.1683 63.0532 72.241 64.5134 71.7622 65.3499 71.6667 66.3519 71.9787 67.2637 72.5958 69.013 74.66 70.0948 77.0578 70.0948 77.7022 70.094 78.3442 70.0181 78.971 69.8689 80.6707 69.5437 82.1607 68.5312 83.0888 67.0705 83.568 66.2343 83.664 65.2322 83.3523 64.3202 82.569 62.1155 79.5002 60.9716 76.3553 61.7128ZM81.0305 65.9465C80.4207 66.8217 79.4828 67.413 78.4301 67.5857 76.3905 68.0658 74.5077 67.3984 74.1823 66.4793 74.0921 66.1943 74.1324 65.884 74.2923 65.6316 74.9021 64.7564 75.84 64.1651 76.8927 63.9924 77.3394 63.8868 77.7966 63.8329 78.2556 63.832 79.7145 63.832 80.89 64.3917 81.1406 65.0988 81.2314 65.3837 81.1911 65.6943 81.0305 65.9465Z" fill="#032221" transform="matrix(1.04546 0 0 1 2862.75 2586.56)"/></g></g></g><rect x="2856" y="2599" width="107" height="13.9998" stroke="#032221" stroke-width="2.29167" stroke-miterlimit="8" fill="none"/><rect x="2856" y="2620" width="35" height="46" stroke="#032221" stroke-width="2.29167" stroke-miterlimit="8" fill="none"/><text fill="#2CC295" font-family="Calibri,Calibri_MSFontService,sans-serif" font-weight="400" font-size="55" transform="matrix(1 0 0 1 2851.31 2816)">Apps</text><text fill="#2CC295" font-family="Calibri,Calibri_MSFontService,sans-serif" font-weight="400" font-size="83" transform="matrix(1 0 0 1 398.408 2650)">Visualize</text><path d="M908.5 2643.5C908.5 2630.8 918.798 2620.5 931.5 2620.5 944.203 2620.5 954.5 2630.8 954.5 2643.5 954.5 2656.2 944.203 2666.5 931.5 2666.5 918.798 2666.5 908.5 2656.2 908.5 2643.5Z" stroke="#F1F7F6" stroke-width="6.875" stroke-miterlimit="8" fill="#032221" fill-rule="evenodd"/><path d="M0 0 2221.39 0.000360892" stroke="#F1F7F6" stroke-width="6.875" stroke-miterlimit="8" stroke-dasharray="27.5 20.625" fill="none" fill-rule="evenodd" transform="matrix(-1 0 0 1 2922.89 3174.5)"/><path d="M1184 3175.5C1184 3115.58 1232.58 3067 1292.5 3067 1352.42 3067 1401 3115.58 1401 3175.5 1401 3235.42 1352.42 3284 1292.5 3284 1232.58 3284 1184 3235.42 1184 3175.5Z" fill="#2CC295" fill-rule="evenodd"/><g><g><g><path d="M1318.67 3134.94C1318.67 3149.94 1306.5 3162.1 1291.5 3162.1 1276.5 3162.1 1264.33 3149.94 1264.33 3134.94 1264.33 3119.93 1276.5 3107.77 1291.5 3107.77 1306.5 3107.77 1318.67 3119.93 1318.67 3134.94Z" fill="#032221"/><path d="M1345.83 3223.23 1345.83 3196.06C1345.83 3191.99 1343.8 3187.91 1340.4 3185.2 1332.93 3179.08 1323.42 3175.01 1313.91 3172.29 1307.12 3170.25 1299.65 3168.9 1291.5 3168.9 1284.03 3168.9 1276.56 3170.25 1269.09 3172.29 1259.58 3175.01 1250.07 3179.76 1242.6 3185.2 1239.2 3187.91 1237.17 3191.99 1237.17 3196.06L1237.17 3223.23 1345.83 3223.23Z" fill="#032221"/></g></g></g><text fill="#2CC295" font-family="Calibri,Calibri_MSFontService,sans-serif" font-weight="400" font-size="55" transform="matrix(1 0 0 1 1173.08 3354)">Individuals</text><path d="M1982 3175.5C1982 3115.58 2030.58 3067 2090.5 3067 2150.42 3067 2199 3115.58 2199 3175.5 2199 3235.42 2150.42 3284 2090.5 3284 2030.58 3284 1982 3235.42 1982 3175.5Z" fill="#2CC295" fill-rule="evenodd"/><g><g><g><path d="M43.6041 102.375 87.2083 102.375 87.2083 115.646 94.7916 115.646 94.7916 102.375 138.396 102.375 138.396 115.646 145.979 115.646 145.979 94.7916 94.7916 94.7916 94.7916 81.5208 87.2083 81.5208 87.2083 94.7916 36.0208 94.7916 36.0208 115.646 43.6041 115.646 43.6041 102.375Z" fill="#032221" transform="matrix(1 0 0 1 2001 3072)"/><path d="M142.187 123.229C131.717 123.229 123.229 131.717 123.229 142.187 123.229 152.658 131.717 161.146 142.187 161.146 152.658 161.146 161.146 152.658 161.146 142.187 161.146 131.717 152.658 123.229 142.187 123.229ZM142.187 129.521C145.184 129.52 147.614 131.949 147.615 134.945 147.616 137.942 145.188 140.372 142.191 140.373 139.195 140.374 136.764 137.946 136.763 134.949 136.763 134.948 136.763 134.947 136.763 134.945 136.763 131.95 139.192 129.521 142.187 129.521ZM153.037 151.778 131.338 151.778 131.338 147.242C131.342 146.388 131.743 145.586 132.424 145.071 134.028 143.917 135.826 143.06 137.732 142.54 139.17 142.067 140.674 141.823 142.187 141.818 143.699 141.862 145.199 142.105 146.648 142.54 148.582 142.984 150.394 143.848 151.957 145.071 152.658 145.568 153.065 146.382 153.043 147.242Z" fill="#032221" transform="matrix(1 0 0 1 2001 3072)"/><path d="M90.9999 123.229C80.5296 123.229 72.0416 131.717 72.0416 142.187 72.0416 152.658 80.5296 161.146 90.9999 161.146 101.47 161.146 109.958 152.658 109.958 142.187 109.958 131.717 101.47 123.229 90.9999 123.229ZM90.9999 129.521C93.9965 129.52 96.4265 131.949 96.4277 134.945 96.4288 137.942 94.0003 140.372 91.0037 140.373 88.0072 140.374 85.5771 137.946 85.5759 134.949 85.5759 134.948 85.5759 134.947 85.5759 134.945 85.5759 131.95 88.0043 129.521 90.9999 129.521ZM101.85 151.778 80.1501 151.778 80.1501 147.242C80.1544 146.388 80.556 145.586 81.2364 145.071 82.8408 143.917 84.6385 143.06 86.5447 142.54 87.9827 142.067 89.4861 141.823 90.9999 141.818 92.512 141.862 94.012 142.105 95.4608 142.54 97.3946 142.984 99.2068 143.848 100.769 145.071 101.47 145.568 101.878 146.382 101.855 147.242Z" fill="#032221" transform="matrix(1 0 0 1 2001 3072)"/><path d="M39.8125 123.229C29.3422 123.229 20.8541 131.717 20.8541 142.187 20.8541 152.658 29.3422 161.146 39.8125 161.146 50.2828 161.146 58.7708 152.658 58.7708 142.187 58.7708 131.717 50.2828 123.229 39.8125 123.229ZM39.8125 129.521C42.809 129.52 45.2391 131.949 45.2402 134.945 45.2414 137.942 42.8128 140.372 39.8163 140.373 36.8197 140.374 34.3896 137.946 34.3885 134.949 34.3885 134.948 34.3885 134.947 34.3885 134.945 34.3885 131.95 36.8169 129.521 39.8125 129.521ZM50.6623 151.778 28.9626 151.778 28.9626 147.242C28.967 146.388 29.3685 145.586 30.0489 145.071 31.6534 143.917 33.451 143.06 35.3573 142.54 36.7952 142.067 38.2986 141.823 39.8125 141.818 41.3246 141.862 42.8246 142.105 44.2734 142.54 46.2071 142.984 48.0193 143.848 49.5817 145.071 50.2828 145.568 50.6902 146.382 50.668 147.242Z" fill="#032221" transform="matrix(1 0 0 1 2001 3072)"/><path d="M90.9999 73.9374C105.658 73.9374 117.542 62.0544 117.542 47.3958 117.542 32.7372 105.658 20.8541 90.9999 20.8541 76.3413 20.8541 64.4583 32.7372 64.4583 47.3958 64.4583 62.0544 76.3413 73.9374 90.9999 73.9374ZM90.9999 29.6622C95.1944 29.6622 98.5946 33.0624 98.5946 37.2569 98.5946 41.4514 95.1944 44.8516 90.9999 44.8516 86.8054 44.8516 83.4052 41.4514 83.4052 37.2569 83.4063 33.0629 86.806 29.6633 90.9999 29.6622ZM75.8105 54.471C75.817 53.2791 76.3776 52.1581 77.3272 51.4377 79.572 49.8243 82.0869 48.6245 84.7532 47.8944 86.7688 47.2288 88.8772 46.8858 90.9999 46.8782 93.1168 46.9408 95.2164 47.2811 97.2448 47.8906 99.9496 48.5143 102.484 49.7239 104.671 51.4339 105.651 52.1289 106.219 53.2664 106.187 54.4672L106.187 61.3036 75.8105 61.3036Z" fill="#032221" transform="matrix(1 0 0 1 2001 3072)"/></g></g></g><text fill="#2CC295" font-family="Calibri,Calibri_MSFontService,sans-serif" font-weight="400" font-size="55" transform="matrix(1 0 0 1 1958.4 3354)">Organization</text><path d="M2796 3175.5C2796 3115.58 2844.8 3067 2905 3067 2965.2 3067 3014 3115.58 3014 3175.5 3014 3235.42 2965.2 3284 2905 3284 2844.8 3284 2796 3235.42 2796 3175.5Z" fill="#2CC295" fill-rule="evenodd"/><g><g><g><path d="M2980.34 3149.63C2977 3141.56 2967.74 3137.82 2959.67 3141.17 2952.98 3143.92 2949.04 3151.01 2950.03 3157.9L2924.63 3168.53C2921.87 3163.81 2916.95 3160.26 2911.44 3159.28L2911.44 3131.91C2918.13 3130.14 2923.25 3124.04 2923.25 3116.75 2923.25 3108.09 2916.16 3101 2907.5 3101L2907.5 3101C2898.84 3101 2891.75 3108.09 2891.75 3116.75 2891.75 3124.04 2896.87 3130.14 2903.56 3131.91L2903.56 3159.08C2897.85 3160.07 2893.13 3163.61 2890.37 3168.33L2864.98 3157.7C2865.96 3150.81 2862.22 3143.72 2855.33 3140.97 2847.26 3137.62 2838 3141.36 2834.66 3149.43 2831.31 3157.51 2835.05 3166.76 2843.12 3170.11 2849.82 3172.86 2857.49 3170.7 2861.63 3164.99L2887.62 3175.62C2887.42 3176.41 2887.42 3177.39 2887.42 3178.18 2887.42 3182.51 2888.8 3186.64 2891.36 3189.99L2870.88 3210.66C2864.78 3207.12 2856.9 3207.91 2851.78 3213.02 2845.68 3219.13 2845.68 3229.17 2851.78 3235.27 2857.89 3241.37 2867.93 3241.37 2874.03 3235.27 2879.15 3230.15 2879.94 3222.28 2876.39 3216.17L2897.26 3195.31C2900.22 3197.08 2903.56 3198.06 2907.11 3198.06 2907.3 3198.06 2907.3 3198.06 2907.5 3198.06 2907.7 3198.06 2907.7 3198.06 2907.89 3198.06 2911.44 3198.06 2914.78 3197.08 2917.74 3195.31L2938.61 3216.17C2935.06 3222.28 2935.85 3230.15 2940.97 3235.47 2947.07 3241.57 2957.11 3241.57 2963.22 3235.47 2969.32 3229.37 2969.32 3219.32 2963.22 3213.22 2958.1 3208.1 2950.22 3207.32 2944.12 3210.86L2923.64 3190.19C2926.2 3186.84 2927.58 3182.9 2927.58 3178.37 2927.58 3177.59 2927.58 3176.6 2927.38 3175.82L2953.37 3165.18C2957.51 3170.7 2965.18 3173.06 2971.88 3170.3 2979.75 3166.76 2983.69 3157.7 2980.34 3149.63Z" fill="#032221"/></g></g></g><text fill="#2CC295" font-family="Calibri,Calibri_MSFontService,sans-serif" font-weight="400" font-size="55" transform="matrix(1 0 0 1 2839.43 3354)">Public</text><text fill="#2CC295" font-family="Calibri,Calibri_MSFontService,sans-serif" font-weight="400" font-size="83" transform="matrix(1 0 0 1 398.408 3182)">Share</text><path d="M908.5 3170.5C908.5 3157.8 918.798 3147.5 931.5 3147.5 944.203 3147.5 954.5 3157.8 954.5 3170.5 954.5 3183.2 944.203 3193.5 931.5 3193.5 918.798 3193.5 908.5 3183.2 908.5 3170.5Z" stroke="#F1F7F6" stroke-width="6.875" stroke-miterlimit="8" fill="#032221" fill-rule="evenodd"/></g></svg>