<svg width="1440" height="900" viewBox="0 0 1440 900" xmlns="http://www.w3.org/2000/svg">
  <defs>
    <pattern id="topography" x="0" y="0" width="300" height="300" patternUnits="userSpaceOnUse">
      <path d="M0,100 Q50,50 100,100 T200,100 T300,100" fill="none" stroke="rgba(0,200,100,0.1)" stroke-width="0.5" />
      <path d="M0,130 Q50,80 100,130 T200,130 T300,130" fill="none" stroke="rgba(0,200,100,0.1)" stroke-width="0.5" />
      <path d="M0,160 Q50,110 100,160 T200,160 T300,160" fill="none" stroke="rgba(0,200,100,0.1)" stroke-width="0.5" />
      <path d="M0,190 Q50,140 100,190 T200,190 T300,190" fill="none" stroke="rgba(0,200,100,0.1)" stroke-width="0.5" />
      <path d="M0,220 Q50,170 100,220 T200,220 T300,220" fill="none" stroke="rgba(0,200,100,0.1)" stroke-width="0.5" />
      <path d="M0,250 Q50,200 100,250 T200,250 T300,250" fill="none" stroke="rgba(0,200,100,0.1)" stroke-width="0.5" />
      <path d="M0,70 Q50,20 100,70 T200,70 T300,70" fill="none" stroke="rgba(0,200,100,0.1)" stroke-width="0.5" />
      <path d="M0,40 Q50,-10 100,40 T200,40 T300,40" fill="none" stroke="rgba(0,200,100,0.1)" stroke-width="0.5" />
      <path d="M0,10 Q50,-40 100,10 T200,10 T300,10" fill="none" stroke="rgba(0,200,100,0.1)" stroke-width="0.5" />
      <path d="M0,280 Q50,230 100,280 T200,280 T300,280" fill="none" stroke="rgba(0,200,100,0.1)" stroke-width="0.5" />
      
      <!-- Contour lines -->
      <path d="M0,150 C25,135 50,130 75,135 C100,140 125,150 150,160 C175,170 200,175 225,170 C250,165 275,150 300,135" fill="none" stroke="rgba(0,200,100,0.15)" stroke-width="0.7" />
      <path d="M0,200 C25,185 50,180 75,185 C100,190 125,200 150,210 C175,220 200,225 225,220 C250,215 275,200 300,185" fill="none" stroke="rgba(0,200,100,0.15)" stroke-width="0.7" />
      <path d="M0,100 C25,85 50,80 75,85 C100,90 125,100 150,110 C175,120 200,125 225,120 C250,115 275,100 300,85" fill="none" stroke="rgba(0,200,100,0.15)" stroke-width="0.7" />
      
      <!-- Elevation markers -->
      <circle cx="75" cy="85" r="1.5" fill="rgba(0,200,100,0.2)" />
      <circle cx="150" cy="110" r="1.5" fill="rgba(0,200,100,0.2)" />
      <circle cx="225" cy="120" r="1.5" fill="rgba(0,200,100,0.2)" />
      
      <circle cx="75" cy="185" r="1.5" fill="rgba(0,200,100,0.2)" />
      <circle cx="150" cy="210" r="1.5" fill="rgba(0,200,100,0.2)" />
      <circle cx="225" cy="220" r="1.5" fill="rgba(0,200,100,0.2)" />
      
      <!-- More complex contours -->
      <path d="M0,50 C30,60 60,65 90,60 C120,55 150,45 180,50 C210,55 240,65 270,70 C300,75 330,70 360,60" fill="none" stroke="rgba(0,200,100,0.1)" stroke-width="0.6" transform="translate(-30, 0)" />
      <path d="M0,250 C30,260 60,265 90,260 C120,255 150,245 180,250 C210,255 240,265 270,270 C300,275 330,270 360,260" fill="none" stroke="rgba(0,200,100,0.1)" stroke-width="0.6" transform="translate(-30, 0)" />
    </pattern>
  </defs>
  <rect width="100%" height="100%" fill="url(#topography)" />
</svg> 